<svg width="40" height="40" viewBox="0 0 40 40" fill="none" xmlns="http://www.w3.org/2000/svg" style="background-color: transparent;">
<g id="gear-fill">
<path id="Subtract" d="M23.5117 2.62596C22.4797 -0.875322 17.5203 -0.875321 16.4883 2.62597L16.2381 3.47508C15.5787 5.71225 13.0234 6.77068 10.9752 5.65503L10.1978 5.23159C6.99231 3.48554 3.48554 6.99231 5.2316 10.1978L5.65503 10.9752C6.77069 13.0234 5.71225 15.5787 3.47508 16.2381L2.62596 16.4883C-0.875322 17.5203 -0.875321 22.4797 2.62597 23.5117L3.47508 23.7619C5.71225 24.4213 6.77068 26.9766 5.65503 29.0248L5.2316 29.8022C3.48554 33.0077 6.9923 36.5145 10.1978 34.7684L10.9752 34.345C13.0234 33.2293 15.5787 34.2878 16.2381 36.5249L16.4883 37.374C17.5203 40.8753 22.4797 40.8753 23.5117 37.374L23.7619 36.5249C24.4213 34.2878 26.9766 33.2293 29.0248 34.345L29.8022 34.7684C33.0077 36.5145 36.5145 33.0077 34.7684 29.8022L34.345 29.0248C33.2293 26.9766 34.2878 24.4213 36.5249 23.7619L37.374 23.5117C40.8753 22.4797 40.8753 17.5203 37.374 16.4883L36.5249 16.2381C34.2878 15.5787 33.2293 13.0234 34.345 10.9752L34.7684 10.1978C36.5145 6.9923 33.0077 3.48554 29.8022 5.2316L29.0248 5.65503C26.9766 6.77069 24.4213 5.71225 23.7619 3.47508L23.5117 2.62596ZM20 27.322C15.9562 27.322 12.678 24.0438 12.678 20C12.678 15.9562 15.9562 12.678 20 12.678C24.0438 12.678 27.322 15.9562 27.322 20C27.322 24.0438 24.0438 27.322 20 27.322Z" fill="white"/>
</g>
</svg>
