<svg width="73" height="73" viewBox="0 0 73 73" fill="none" xmlns="http://www.w3.org/2000/svg">
<g id="server">
<g id="Union">
<path d="M6.08324 12.1667C6.08324 5.4472 19.7012 0 36.4999 0C53.2986 0 66.9166 5.4472 66.9166 12.1667V18.25C66.9166 24.9695 53.2986 30.4167 36.4999 30.4167C19.7012 30.4167 6.08324 24.9695 6.08324 18.25V12.1667Z" fill="#36A4D0"/>
<path d="M6.08324 28.9005V42.5833C6.08324 49.3028 19.7012 54.75 36.4999 54.75C53.2986 54.75 66.9166 49.3028 66.9166 42.5833V28.9005C64.9561 30.3552 62.668 31.541 60.267 32.5014C53.8806 35.0559 45.475 36.5 36.4999 36.5C27.5248 36.5 19.1192 35.0559 12.7328 32.5014C10.3318 31.541 8.04374 30.3552 6.08324 28.9005Z" fill="#36A4D0"/>
<path d="M66.9166 53.2339C64.9561 54.6885 62.668 55.8743 60.267 56.8347C53.8806 59.3893 45.475 60.8333 36.4999 60.8333C27.5248 60.8333 19.1192 59.3893 12.7328 56.8347C10.3318 55.8743 8.04374 54.6885 6.08324 53.2339V60.8333C6.08324 67.5528 19.7012 73 36.4999 73C53.2986 73 66.9166 67.5528 66.9166 60.8333V53.2339Z" fill="#36A4D0"/>
</g>
</g>
</svg>
